<svg width="44" height="44" xmlns="http://www.w3.org/2000/svg">
  <g fill="none" fill-rule="evenodd">
    <path d="M0 0h44v44H0z"/>
    <circle stroke="#000" stroke-width="2" cx="22" cy="22" r="21"/>
    <path d="M22.7260375 29.931282s.4511951-.0492101.682295-.2928605c.211536-.2232462.2041994-.6445333.2041994-.6445333s-.0281232-1.9672066.9023902-2.2576667c.9170632-.285659 2.0945724 1.9023933 3.3442238 2.7437672.9439638.6361315 1.6604958.4969028 1.6604958.4969028l3.3393328-.0456095s1.7460884-.1056218.918286-1.4535004c-.0684741-.1104229-.4829866-.9974062-2.4821844-2.8193829-2.0945724-1.9071942-1.8133397-1.5987305.7079728-4.8982125 1.5357751-2.0092154 2.1495961-3.235869 1.9576242-3.7603774-.1821899-.5017037-1.3120117-.3684762-1.3120117-.3684762l-3.7587364.0228047s-.2787872-.0372077-.4854321.0840174c-.2017539.1188246-.3325883.3960819-.3325883.3960819s-.5942569 1.5543213-1.3878223 2.8769947c-1.673946 2.7893767-2.3427908 2.9370072-2.616687 2.7641714-.6370532-.4044836-.4780956-1.6227354-.4780956-2.4881143 0-2.704159.4181808-3.831192-.8131294-4.1228523-.4083988-.0972201-.7091955-.1608332-1.7546476-.1716355-1.3413578-.0132027-2.4760706.004801-3.1192376.3132648-.4279629.2052424-.7581056.6637372-.5563517.6901426.2482184.0324067.8106839.1488308 1.1090351.5473132.3851665.5149064.3717163 1.6695451.3717163 1.6695451s.2213179 3.183058-.5172237 3.5779397c-.5062188.271256-1.2007414-.2820583-2.6937203-2.8133816-.7642193-1.296268-1.3413577-2.7293642-1.3413577-2.7293642s-.1112704-.2676554-.3105788-.4116852c-.2408819-.1740359-.5771384-.2280471-.5771384-.2280471l-3.57165551.0228047s-.53678766.014403-.73365056.2436504c-.17485339.2028419-.01345026.624129-.01345026.624129s2.79643143 6.4225277 5.96335633 9.6595969c2.9040335 2.9670133 6.20057 2.7725731 6.20057 2.7725731h1.4942016z" fill="#000"/>
  </g>
</svg>
